# Blender 3.5.0
# www.blender.org
mtllib beachball.mtl
o Sphere
v 0.089921 0.385090 -0.124814
v 0.171039 0.327577 -0.237411
v 0.235415 0.237999 -0.326768
v 0.276747 0.125123 -0.384138
v 0.290989 0.000000 -0.403907
v 0.276747 -0.125123 -0.384138
v 0.235415 -0.237999 -0.326768
v 0.171039 -0.327577 -0.237411
v 0.089921 -0.385090 -0.124814
v 0.145495 0.385090 -0.047675
v 0.276747 0.327577 -0.090683
v 0.380910 0.237999 -0.124814
v 0.447787 0.125123 -0.146728
v 0.470831 0.000000 -0.154279
v 0.447787 -0.125123 -0.146728
v 0.380910 -0.237999 -0.124814
v 0.276747 -0.327577 -0.090683
v 0.145495 -0.385090 -0.047675
v 0.145495 0.385090 0.047675
v 0.276747 0.327577 0.090683
v 0.380910 0.237999 0.124814
v 0.447787 0.125123 0.146728
v 0.470831 0.000000 0.154279
v 0.447787 -0.125123 0.146728
v 0.380910 -0.237999 0.124814
v 0.276747 -0.327577 0.090683
v 0.145495 -0.385090 0.047675
v 0.089921 0.385090 0.124814
v 0.171039 0.327577 0.237411
v 0.235415 0.237999 0.326768
v 0.276747 0.125123 0.384138
v 0.290989 0.000000 0.403907
v 0.276747 -0.125123 0.384138
v 0.235415 -0.237999 0.326768
v 0.171039 -0.327577 0.237411
v 0.089921 -0.385090 0.124814
v 0.000000 0.385090 0.154279
v 0.000000 0.327577 0.293456
v 0.000000 0.237999 0.403907
v 0.000000 0.125123 0.474821
v 0.000000 0.000000 0.499256
v 0.000000 -0.125123 0.474821
v 0.000000 -0.237999 0.403907
v 0.000000 -0.327577 0.293456
v 0.000000 -0.385090 0.154279
v 0.000000 0.404908 0.000000
v -0.089921 0.385090 0.124814
v -0.171039 0.327577 0.237411
v -0.235415 0.237999 0.326768
v -0.276747 0.125123 0.384138
v -0.290989 0.000000 0.403907
v -0.276747 -0.125123 0.384138
v -0.235415 -0.237999 0.326768
v -0.171039 -0.327577 0.237411
v -0.089921 -0.385090 0.124814
v -0.145495 0.385090 0.047675
v -0.276747 0.327577 0.090683
v -0.380910 0.237999 0.124814
v -0.447786 0.125123 0.146728
v -0.470831 0.000000 0.154279
v -0.447786 -0.125123 0.146728
v -0.380910 -0.237999 0.124814
v -0.276747 -0.327577 0.090683
v -0.145495 -0.385090 0.047675
v 0.000000 -0.404908 0.000000
v -0.145495 0.385090 -0.047675
v -0.276747 0.327577 -0.090683
v -0.380910 0.237999 -0.124814
v -0.447787 0.125123 -0.146728
v -0.470831 0.000000 -0.154279
v -0.447787 -0.125123 -0.146728
v -0.380910 -0.237999 -0.124814
v -0.276747 -0.327577 -0.090683
v -0.145495 -0.385090 -0.047675
v -0.089921 0.385090 -0.124814
v -0.171039 0.327577 -0.237410
v -0.235415 0.237999 -0.326768
v -0.276747 0.125123 -0.384138
v -0.290989 0.000000 -0.403907
v -0.276747 -0.125123 -0.384138
v -0.235415 -0.237999 -0.326768
v -0.171039 -0.327577 -0.237410
v -0.089921 -0.385090 -0.124814
v -0.000000 0.385090 -0.154279
v -0.000000 0.327577 -0.293456
v -0.000000 0.237999 -0.403907
v -0.000000 0.125123 -0.474821
v -0.000000 0.000000 -0.499256
v -0.000000 -0.125123 -0.474821
v -0.000000 -0.237999 -0.403907
v -0.000000 -0.327577 -0.293456
v -0.000000 -0.385090 -0.154279
vn 0.1242 -0.9170 -0.3790
vn 0.3062 -0.1825 -0.9343
vn 0.2021 0.7606 -0.6169
vn 0.0417 -0.9910 -0.1273
vn 0.2674 -0.5126 -0.8159
vn 0.2674 0.5126 -0.8159
vn 0.0417 0.9910 -0.1273
vn 0.2021 -0.7606 -0.6169
vn 0.3062 0.1825 -0.9343
vn 0.1242 0.9170 -0.3790
vn 0.7979 -0.1816 -0.5748
vn 0.5282 0.7591 -0.3805
vn 0.1092 -0.9909 -0.0787
vn 0.6975 -0.5108 -0.5025
vn 0.6975 0.5108 -0.5025
vn 0.1092 0.9909 -0.0787
vn 0.5282 -0.7591 -0.3805
vn 0.7979 0.1816 -0.5748
vn 0.3248 0.9164 -0.2340
vn 0.3248 -0.9164 -0.2340
vn 0.4013 0.9159 -0.0000
vn 0.4013 -0.9159 -0.0000
vn 0.9835 -0.1811 -0.0000
vn 0.6520 0.7582 -0.0000
vn 0.1350 -0.9909 -0.0000
vn 0.8603 -0.5097 -0.0000
vn 0.8603 0.5097 -0.0000
vn 0.1350 0.9909 -0.0000
vn 0.6520 -0.7582 -0.0000
vn 0.9835 0.1811 -0.0000
vn 0.5282 -0.7591 0.3805
vn 0.7979 0.1816 0.5748
vn 0.3248 0.9164 0.2340
vn 0.3248 -0.9164 0.2340
vn 0.7979 -0.1816 0.5748
vn 0.5282 0.7591 0.3805
vn 0.1092 -0.9909 0.0787
vn 0.6975 -0.5108 0.5025
vn 0.6975 0.5108 0.5025
vn 0.1092 0.9909 0.0787
vn 0.2674 0.5126 0.8159
vn 0.0417 0.9910 0.1273
vn 0.2021 -0.7606 0.6169
vn 0.3062 0.1825 0.9343
vn 0.1242 0.9170 0.3790
vn 0.1242 -0.9170 0.3790
vn 0.3062 -0.1825 0.9343
vn 0.2021 0.7606 0.6169
vn 0.0417 -0.9910 0.1273
vn 0.2674 -0.5126 0.8159
vn -0.2674 -0.5126 0.8159
vn -0.2674 0.5126 0.8159
vn -0.0417 0.9910 0.1273
vn -0.2021 -0.7606 0.6169
vn -0.3062 0.1825 0.9343
vn -0.1242 0.9170 0.3790
vn -0.1242 -0.9170 0.3790
vn -0.3062 -0.1825 0.9343
vn -0.2021 0.7606 0.6169
vn -0.0417 -0.9910 0.1273
vn -0.5282 0.7591 0.3805
vn -0.1092 -0.9909 0.0787
vn -0.6975 -0.5108 0.5025
vn -0.6975 0.5108 0.5025
vn -0.1092 0.9909 0.0787
vn -0.5282 -0.7591 0.3805
vn -0.7979 0.1816 0.5748
vn -0.3248 0.9164 0.2340
vn -0.3248 -0.9164 0.2340
vn -0.7979 -0.1816 0.5748
vn -0.4013 -0.9159 -0.0000
vn -0.9835 -0.1811 -0.0000
vn -0.6520 0.7582 -0.0000
vn -0.1350 -0.9909 -0.0000
vn -0.8603 -0.5097 -0.0000
vn -0.8603 0.5097 -0.0000
vn -0.1350 0.9909 -0.0000
vn -0.6520 -0.7582 -0.0000
vn -0.9835 0.1811 -0.0000
vn -0.4013 0.9159 -0.0000
vn -0.7979 0.1816 -0.5748
vn -0.3248 0.9164 -0.2340
vn -0.3248 -0.9164 -0.2340
vn -0.7979 -0.1816 -0.5748
vn -0.5282 0.7591 -0.3805
vn -0.1092 -0.9909 -0.0787
vn -0.6975 -0.5108 -0.5025
vn -0.6975 0.5108 -0.5025
vn -0.1092 0.9909 -0.0787
vn -0.5282 -0.7591 -0.3805
vn -0.0417 0.9910 -0.1273
vn -0.2021 -0.7606 -0.6169
vn -0.3062 0.1825 -0.9343
vn -0.1242 0.9170 -0.3790
vn -0.1242 -0.9170 -0.3790
vn -0.3062 -0.1825 -0.9343
vn -0.2021 0.7606 -0.6169
vn -0.0417 -0.9910 -0.1273
vn -0.2674 -0.5126 -0.8159
vn -0.2674 0.5126 -0.8159
vt 0.600000 0.900000
vt 0.600000 0.800000
vt 0.600000 0.700000
vt 0.600000 0.600000
vt 0.600000 0.500000
vt 0.600000 0.400000
vt 0.600000 0.300000
vt 0.600000 0.200000
vt 0.600000 0.100000
vt 0.500000 0.900000
vt 0.500000 0.800000
vt 0.500000 0.700000
vt 0.500000 0.600000
vt 0.500000 0.500000
vt 0.500000 0.400000
vt 0.500000 0.300000
vt 0.500000 0.200000
vt 0.500000 0.100000
vt 0.400000 0.900000
vt 0.400000 0.800000
vt 0.400000 0.700000
vt 0.400000 0.600000
vt 0.400000 0.500000
vt 0.400000 0.400000
vt 0.400000 0.300000
vt 0.400000 0.200000
vt 0.400000 0.100000
vt 0.300000 0.900000
vt 0.300000 0.800000
vt 0.300000 0.700000
vt 0.300000 0.600000
vt 0.300000 0.500000
vt 0.300000 0.400000
vt 0.300000 0.300000
vt 0.300000 0.200000
vt 0.300000 0.100000
vt 0.200000 0.900000
vt 0.200000 0.800000
vt 0.200000 0.700000
vt 0.200000 0.600000
vt 0.200000 0.500000
vt 0.200000 0.400000
vt 0.200000 0.300000
vt 0.200000 0.200000
vt 0.200000 0.100000
vt 0.650000 1.000000
vt 0.550000 1.000000
vt 0.450000 1.000000
vt 0.350000 1.000000
vt 0.250000 1.000000
vt 0.150000 1.000000
vt 0.050000 1.000000
vt 0.950000 1.000000
vt 0.850000 1.000000
vt 0.750000 1.000000
vt 0.100000 0.900000
vt 0.100000 0.800000
vt 0.100000 0.700000
vt 0.100000 0.600000
vt 0.100000 0.500000
vt 0.100000 0.400000
vt 0.100000 0.300000
vt 0.100000 0.200000
vt 0.100000 0.100000
vt 0.000000 0.900000
vt 1.000000 0.900000
vt 0.000000 0.800000
vt 1.000000 0.800000
vt 0.000000 0.700000
vt 1.000000 0.700000
vt 0.000000 0.600000
vt 1.000000 0.600000
vt 0.000000 0.500000
vt 1.000000 0.500000
vt 0.000000 0.400000
vt 1.000000 0.400000
vt 0.000000 0.300000
vt 1.000000 0.300000
vt 0.000000 0.200000
vt 1.000000 0.200000
vt 0.000000 0.100000
vt 1.000000 0.100000
vt 0.650000 0.000000
vt 0.550000 0.000000
vt 0.450000 0.000000
vt 0.350000 0.000000
vt 0.250000 0.000000
vt 0.150000 0.000000
vt 0.050000 0.000000
vt 0.950000 0.000000
vt 0.850000 0.000000
vt 0.750000 0.000000
vt 0.900000 0.900000
vt 0.900000 0.800000
vt 0.900000 0.700000
vt 0.900000 0.600000
vt 0.900000 0.500000
vt 0.900000 0.400000
vt 0.900000 0.300000
vt 0.900000 0.200000
vt 0.900000 0.100000
vt 0.800000 0.900000
vt 0.800000 0.800000
vt 0.800000 0.700000
vt 0.800000 0.600000
vt 0.800000 0.500000
vt 0.800000 0.400000
vt 0.800000 0.300000
vt 0.800000 0.200000
vt 0.800000 0.100000
vt 0.700000 0.900000
vt 0.700000 0.800000
vt 0.700000 0.700000
vt 0.700000 0.600000
vt 0.700000 0.500000
vt 0.700000 0.400000
vt 0.700000 0.300000
vt 0.700000 0.200000
vt 0.700000 0.100000
s 0
usemtl Material.001
f 92/119/1 8/8/1 9/9/1
f 89/116/2 5/5/2 6/6/2
f 85/112/3 3/3/3 86/113/3
f 65/83/4 92/119/4 9/9/4
f 90/117/5 6/6/5 7/7/5
f 86/113/6 4/4/6 87/114/6
f 84/111/7 46/46/7 1/1/7
f 91/118/8 7/7/8 8/8/8
f 87/114/9 5/5/9 88/115/9
f 84/111/10 2/2/10 85/112/10
f 10/10/21 20/20/21 11/11/21
f 17/17/22 27/27/22 18/18/22
f 14/14/23 24/24/23 15/15/23
f 11/11/24 21/21/24 12/12/24
f 65/85/25 18/18/25 27/27/25
f 15/15/26 25/25/26 16/16/26
f 12/12/27 22/22/27 13/13/27
f 10/10/28 46/48/28 19/19/28
f 16/16/29 26/26/29 17/17/29
f 14/14/30 22/22/30 23/23/30
f 31/31/41 39/39/41 40/40/41
f 28/28/42 46/50/42 37/37/42
f 34/34/43 44/44/43 35/35/43
f 32/32/44 40/40/44 41/41/44
f 29/29/45 37/37/45 38/38/45
f 35/35/46 45/45/46 36/36/46
f 32/32/47 42/42/47 33/33/47
f 30/30/48 38/38/48 39/39/48
f 65/87/49 36/36/49 45/45/49
f 33/33/50 43/43/50 34/34/50
f 48/57/61 58/69/61 49/58/61
f 65/89/62 55/64/62 64/81/62
f 53/62/63 61/75/63 62/77/63
f 49/58/64 59/71/64 50/59/64
f 47/56/65 46/52/65 56/65/65
f 54/63/66 62/77/66 63/79/66
f 50/59/67 60/73/67 51/60/67
f 47/56/68 57/67/68 48/57/68
f 55/64/69 63/79/69 64/81/69
f 52/61/70 60/73/70 61/75/70
f 70/97/81 78/105/81 79/106/81
f 67/94/82 75/102/82 76/103/82
f 73/100/83 83/110/83 74/101/83
f 70/97/84 80/107/84 71/98/84
f 68/95/85 76/103/85 77/104/85
f 65/91/86 74/101/86 83/110/86
f 71/98/87 81/108/87 72/99/87
f 69/96/88 77/104/88 78/105/88
f 66/93/89 46/54/89 75/102/89
f 72/99/90 82/109/90 73/100/90
f 92/119/1 91/118/1 8/8/1
f 89/116/2 88/115/2 5/5/2
f 85/112/3 2/2/3 3/3/3
f 90/117/5 89/116/5 6/6/5
f 86/113/6 3/3/6 4/4/6
f 91/118/8 90/117/8 7/7/8
f 87/114/9 4/4/9 5/5/9
f 84/111/10 1/1/10 2/2/10
f 10/10/21 19/19/21 20/20/21
f 17/17/22 26/26/22 27/27/22
f 14/14/23 23/23/23 24/24/23
f 11/11/24 20/20/24 21/21/24
f 15/15/26 24/24/26 25/25/26
f 12/12/27 21/21/27 22/22/27
f 16/16/29 25/25/29 26/26/29
f 14/14/30 13/13/30 22/22/30
f 31/31/41 30/30/41 39/39/41
f 34/34/43 43/43/43 44/44/43
f 32/32/44 31/31/44 40/40/44
f 29/29/45 28/28/45 37/37/45
f 35/35/46 44/44/46 45/45/46
f 32/32/47 41/41/47 42/42/47
f 30/30/48 29/29/48 38/38/48
f 33/33/50 42/42/50 43/43/50
f 48/57/61 57/67/61 58/69/61
f 53/62/63 52/61/63 61/75/63
f 49/58/64 58/69/64 59/71/64
f 54/63/66 53/62/66 62/77/66
f 50/59/67 59/71/67 60/73/67
f 47/56/68 56/65/68 57/67/68
f 55/64/69 54/63/69 63/79/69
f 52/61/70 51/60/70 60/73/70
f 70/97/81 69/96/81 78/105/81
f 67/94/82 66/93/82 75/102/82
f 73/100/83 82/109/83 83/110/83
f 70/97/84 79/106/84 80/107/84
f 68/95/85 67/94/85 76/103/85
f 71/98/87 80/107/87 81/108/87
f 69/96/88 68/95/88 77/104/88
f 72/99/90 81/108/90 82/109/90
usemtl Material.002
f 6/6/11 14/14/11 15/15/11
f 2/2/12 12/12/12 3/3/12
f 65/84/13 9/9/13 18/18/13
f 7/7/14 15/15/14 16/16/14
f 3/3/15 13/13/15 4/4/15
f 1/1/16 46/47/16 10/10/16
f 8/8/17 16/16/17 17/17/17
f 4/4/18 14/14/18 5/5/18
f 1/1/19 11/11/19 2/2/19
f 9/9/20 17/17/20 18/18/20
f 25/25/31 35/35/31 26/26/31
f 23/23/32 31/31/32 32/32/32
f 20/20/33 28/28/33 29/29/33
f 26/26/34 36/36/34 27/27/34
f 23/23/35 33/33/35 24/24/35
f 21/21/36 29/29/36 30/30/36
f 65/86/37 27/27/37 36/36/37
f 24/24/38 34/34/38 25/25/38
f 22/22/39 30/30/39 31/31/39
f 19/19/40 46/49/40 28/28/40
f 43/43/51 52/61/51 53/62/51
f 39/39/52 50/59/52 40/40/52
f 37/37/53 46/51/53 47/56/53
f 44/44/54 53/62/54 54/63/54
f 40/40/55 51/60/55 41/41/55
f 37/37/56 48/57/56 38/38/56
f 45/45/57 54/63/57 55/64/57
f 42/42/58 51/60/58 52/61/58
f 38/38/59 49/58/59 39/39/59
f 65/88/60 45/45/60 55/64/60
f 64/82/71 73/100/71 74/101/71
f 60/74/72 71/98/72 61/76/72
f 58/70/73 67/94/73 68/95/73
f 65/90/74 64/82/74 74/101/74
f 62/78/75 71/98/75 72/99/75
f 58/70/76 69/96/76 59/72/76
f 56/66/77 46/53/77 66/93/77
f 62/78/78 73/100/78 63/80/78
f 60/74/79 69/96/79 70/97/79
f 56/66/80 67/94/80 57/68/80
f 75/102/91 46/55/91 84/111/91
f 81/108/92 91/118/92 82/109/92
f 79/106/93 87/114/93 88/115/93
f 76/103/94 84/111/94 85/112/94
f 82/109/95 92/119/95 83/110/95
f 79/106/96 89/116/96 80/107/96
f 77/104/97 85/112/97 86/113/97
f 65/92/98 83/110/98 92/119/98
f 80/107/99 90/117/99 81/108/99
f 78/105/100 86/113/100 87/114/100
f 6/6/11 5/5/11 14/14/11
f 2/2/12 11/11/12 12/12/12
f 7/7/14 6/6/14 15/15/14
f 3/3/15 12/12/15 13/13/15
f 8/8/17 7/7/17 16/16/17
f 4/4/18 13/13/18 14/14/18
f 1/1/19 10/10/19 11/11/19
f 9/9/20 8/8/20 17/17/20
f 25/25/31 34/34/31 35/35/31
f 23/23/32 22/22/32 31/31/32
f 20/20/33 19/19/33 28/28/33
f 26/26/34 35/35/34 36/36/34
f 23/23/35 32/32/35 33/33/35
f 21/21/36 20/20/36 29/29/36
f 24/24/38 33/33/38 34/34/38
f 22/22/39 21/21/39 30/30/39
f 43/43/51 42/42/51 52/61/51
f 39/39/52 49/58/52 50/59/52
f 44/44/54 43/43/54 53/62/54
f 40/40/55 50/59/55 51/60/55
f 37/37/56 47/56/56 48/57/56
f 45/45/57 44/44/57 54/63/57
f 42/42/58 41/41/58 51/60/58
f 38/38/59 48/57/59 49/58/59
f 64/82/71 63/80/71 73/100/71
f 60/74/72 70/97/72 71/98/72
f 58/70/73 57/68/73 67/94/73
f 62/78/75 61/76/75 71/98/75
f 58/70/76 68/95/76 69/96/76
f 62/78/78 72/99/78 73/100/78
f 60/74/79 59/72/79 69/96/79
f 56/66/80 66/93/80 67/94/80
f 81/108/92 90/117/92 91/118/92
f 79/106/93 78/105/93 87/114/93
f 76/103/94 75/102/94 84/111/94
f 82/109/95 91/118/95 92/119/95
f 79/106/96 88/115/96 89/116/96
f 77/104/97 76/103/97 85/112/97
f 80/107/99 89/116/99 90/117/99
f 78/105/100 77/104/100 86/113/100
