# Blender 3.5.0
# www.blender.org
mtllib hallway.mtl
o Cube.001
v 4.000000 1.500000 -1.000000
v 4.000000 -1.500000 -1.000000
v 4.000000 1.500000 1.000000
v 4.000000 -1.500000 1.000000
v -4.000000 1.500000 -1.000000
v -4.000000 -1.500000 -1.000000
v -4.000000 1.500000 1.000000
v -4.000000 -1.500000 1.000000
v -4.000000 -1.300000 0.900000
v -4.000000 1.300000 0.900000
v -4.000000 -1.300000 -0.900000
v -4.000000 1.300000 -0.900000
v 4.000000 -1.300000 -0.900000
v 4.000000 1.300000 -0.900000
v 4.000000 -1.300000 0.900000
v 4.000000 1.300000 0.900000
vn -0.0000 1.0000 -0.0000
vn -0.0000 -0.0000 1.0000
vn -1.0000 -0.0000 -0.0000
vn -0.0000 -1.0000 -0.0000
vn 1.0000 -0.0000 -0.0000
vn -0.0000 -0.0000 -1.0000
vt 0.625000 0.500000
vt 0.375000 0.500000
vt 0.625000 0.750000
vt 0.375000 0.750000
vt 0.875000 0.500000
vt 0.625000 0.250000
vt 0.125000 0.500000
vt 0.375000 0.250000
vt 0.875000 0.750000
vt 0.625000 1.000000
vt 0.625000 0.000000
vt 0.375000 1.000000
vt 0.375000 0.000000
vt 0.125000 0.750000
vt 0.391667 0.012500
vt 0.375000 0.975000
vt 0.150000 0.750000
vt 0.850000 0.750000
vt 0.608333 0.012500
vt 0.625000 0.975000
vt 0.391667 0.237500
vt 0.150000 0.500000
vt 0.375000 0.275000
vt 0.625000 0.275000
vt 0.608333 0.237500
vt 0.850000 0.500000
vt 0.350000 0.500000
vt 0.391667 0.512500
vt 0.375000 0.475000
vt 0.608333 0.512500
vt 0.650000 0.500000
vt 0.625000 0.475000
vt 0.375000 0.775000
vt 0.391667 0.737500
vt 0.350000 0.750000
vt 0.608333 0.737500
vt 0.650000 0.750000
vt 0.625000 0.775000
s 0
usemtl Material.001
f 12/26/4 16/37/4 10/18/4
f 12/26/4 14/31/4 16/37/4
usemtl Material.002
f 9/16/6 16/38/6 15/33/6
f 11/22/1 15/35/1 13/27/1
f 11/23/2 14/32/2 12/24/2
f 9/16/6 10/20/6 16/38/6
f 11/22/1 9/17/1 15/35/1
f 11/23/2 13/29/2 14/32/2
usemtl Material.003
f 5/5/1 3/3/1 1/1/1
f 3/3/2 8/12/2 4/4/2
f 6/8/3 12/25/3 5/6/3
f 8/13/3 7/11/3 9/15/3
f 2/2/4 8/14/4 6/7/4
f 2/2/5 1/1/5 13/28/5
f 4/4/5 16/36/5 3/3/5
f 5/6/6 2/2/6 6/8/6
f 5/5/1 7/9/1 3/3/1
f 3/3/2 7/10/2 8/12/2
f 6/8/3 11/21/3 12/25/3
f 11/21/3 6/8/3 8/13/3
f 7/11/3 5/6/3 12/25/3
f 7/11/3 12/25/3 10/19/3
f 9/15/3 11/21/3 8/13/3
f 7/11/3 10/19/3 9/15/3
f 2/2/4 4/4/4 8/14/4
f 13/28/5 15/34/5 4/4/5
f 1/1/5 3/3/5 16/36/5
f 1/1/5 16/36/5 14/30/5
f 13/28/5 4/4/5 2/2/5
f 1/1/5 14/30/5 13/28/5
f 4/4/5 15/34/5 16/36/5
f 5/6/6 1/1/6 2/2/6
