# Blender 3.5.0
# www.blender.org
mtllib walls.mtl
o Cube
v 4.000000 5.827604 -4.000000
v 4.000000 -0.172396 -4.000000
v 4.000000 5.827604 4.000000
v 4.000000 -0.172396 4.000000
v -4.000000 5.827604 -4.000000
v -4.000000 -0.172396 -4.000000
v -4.000000 5.827604 4.000000
v -4.000000 -0.172396 4.000000
v -3.500000 5.827604 3.500000
v 3.500000 5.827604 -3.500000
v -3.500000 5.827604 -3.500000
v 3.500000 5.827604 3.500000
v 3.500000 -0.172396 3.500000
v -3.500000 -0.172396 -3.500000
v 3.500000 -0.172396 -3.500000
v -3.500000 -0.172396 3.500000
vn -0.0000 1.0000 -0.0000
vn -0.0000 -0.0000 1.0000
vn -1.0000 -0.0000 -0.0000
vn -0.0000 -1.0000 -0.0000
vn 1.0000 -0.0000 -0.0000
vn -0.0000 -0.0000 -1.0000
vt 0.500000 0.077171
vt 0.500000 0.922829
vt 0.971727 0.077171
vt 0.971727 0.922829
vt 0.500000 -0.768488
vt 0.028273 0.077171
vt 0.028273 0.922829
vt 0.500000 1.768488
vt 0.971727 -0.768488
vt 1.443454 0.077171
vt -0.443454 0.077171
vt -0.443454 0.922829
vt 1.443454 0.922829
vt 0.971727 1.768488
vt 1.443454 0.246302
vt 0.942244 -0.715634
vt -0.443454 0.246303
vt 0.529483 0.024317
vt 0.500000 0.246303
vt 0.529483 -0.715634
vt 0.028273 0.246303
vt 0.942244 0.024317
vt 0.971727 0.246303
vt 0.942244 0.975683
vt 0.971727 0.753698
vt 0.529483 1.715634
vt 0.028273 0.753698
vt 0.529483 0.975683
vt 0.500000 0.753698
vt 0.942244 1.715634
vt -0.443454 0.753698
vt 1.443454 0.753698
s 0
usemtl Material
f 7/9/1 12/22/1 9/16/1
f 1/1/1 11/20/1 10/18/1
f 3/3/2 8/13/2 4/4/2
f 7/11/3 6/7/3 8/12/3
f 6/8/4 2/2/4 14/26/4
f 8/14/4 13/24/4 4/4/4
f 1/1/5 4/4/5 2/2/5
f 5/6/6 2/2/6 6/7/6
f 11/20/1 5/5/1 7/9/1
f 7/9/1 3/3/1 12/22/1
f 9/16/1 11/20/1 7/9/1
f 12/22/1 3/3/1 1/1/1
f 1/1/1 5/5/1 11/20/1
f 10/18/1 12/22/1 1/1/1
f 3/3/2 7/10/2 8/13/2
f 7/11/3 5/6/3 6/7/3
f 14/26/4 16/30/4 8/14/4
f 2/2/4 4/4/4 13/24/4
f 2/2/4 13/24/4 15/28/4
f 14/26/4 8/14/4 6/8/4
f 2/2/4 15/28/4 14/26/4
f 8/14/4 16/30/4 13/24/4
f 1/1/5 3/3/5 4/4/5
f 5/6/6 1/1/6 2/2/6
usemtl 
f 11/21/5 16/31/5 14/27/5
f 10/19/2 14/27/2 15/29/2
f 10/19/3 13/25/3 12/23/3
f 12/23/6 16/32/6 9/15/6
f 11/21/5 9/17/5 16/31/5
f 10/19/2 11/21/2 14/27/2
f 10/19/3 15/29/3 13/25/3
f 12/23/6 13/25/6 16/32/6
